<mxfile host="app.diagrams.net" agent="Mozilla/5.0 (Windows NT 10.0; Win64; x64) AppleWebKit/537.36 (KHTML, like Gecko) Chrome/131.0.0.0 Safari/537.36" version="25.0.3">
  <diagram name="페이지-1" id="1k0-j0dPdx_pitf_sdkS">
    <mxGraphModel dx="2385" dy="1395" grid="1" gridSize="10" guides="1" tooltips="1" connect="1" arrows="1" fold="1" page="1" pageScale="1" pageWidth="1169" pageHeight="827" math="0" shadow="0">
      <root>
        <mxCell id="0" />
        <mxCell id="bl2LzJDID7CKvUJ2VzMa-29" style="locked=1;" parent="0" />
        <mxCell id="bl2LzJDID7CKvUJ2VzMa-30" value="" style="rounded=1;arcSize=9;align=left;spacingLeft=5;strokeColor=#4C9AFF;html=1;strokeWidth=2;fontSize=12;fillColor=none;movable=1;resizable=1;rotatable=1;deletable=1;editable=1;locked=0;connectable=1;" vertex="1" parent="bl2LzJDID7CKvUJ2VzMa-29">
          <mxGeometry x="20" y="60" width="1120" height="740" as="geometry" />
        </mxCell>
        <mxCell id="bl2LzJDID7CKvUJ2VzMa-31" value="&lt;font style=&quot;font-size: 33px;&quot;&gt;백엔드 API&amp;nbsp;Prod&amp;nbsp;서버 로드밸런싱 오토스케일링 아키텍처&lt;/font&gt;" style="fillColor=none;strokeColor=none;html=1;fontSize=12;fontStyle=0;align=center;fontColor=#596780;fontStyle=1;fontSize=11" vertex="1" parent="bl2LzJDID7CKvUJ2VzMa-29">
          <mxGeometry x="47" y="26" width="1063" height="20" as="geometry" />
        </mxCell>
        <mxCell id="bl2LzJDID7CKvUJ2VzMa-32" value="AZ가용영역 a2" style="sketch=0;outlineConnect=0;gradientColor=none;html=1;whiteSpace=wrap;fontSize=12;fontStyle=0;shape=mxgraph.aws4.group;grIcon=mxgraph.aws4.group_region;strokeColor=#879196;fillColor=none;verticalAlign=top;align=left;spacingLeft=30;fontColor=#879196;dashed=1;noLabel=0;" vertex="1" parent="bl2LzJDID7CKvUJ2VzMa-29">
          <mxGeometry x="640" y="117" width="450" height="290" as="geometry" />
        </mxCell>
        <mxCell id="bl2LzJDID7CKvUJ2VzMa-33" value="Private subnet" style="points=[[0,0],[0.25,0],[0.5,0],[0.75,0],[1,0],[1,0.25],[1,0.5],[1,0.75],[1,1],[0.75,1],[0.5,1],[0.25,1],[0,1],[0,0.75],[0,0.5],[0,0.25]];outlineConnect=0;html=1;whiteSpace=wrap;fontSize=12;fontStyle=0;container=1;pointerEvents=0;collapsible=0;recursiveResize=0;shape=mxgraph.aws4.group;grIcon=mxgraph.aws4.group_security_group;grStroke=0;strokeColor=#b85450;fillColor=#f8cecc;verticalAlign=top;align=left;spacingLeft=30;dashed=0;" vertex="1" parent="bl2LzJDID7CKvUJ2VzMa-29">
          <mxGeometry x="674" y="142" width="396" height="260" as="geometry" />
        </mxCell>
        <mxCell id="bl2LzJDID7CKvUJ2VzMa-34" value="Auto Scaling group" style="points=[[0,0],[0.25,0],[0.5,0],[0.75,0],[1,0],[1,0.25],[1,0.5],[1,0.75],[1,1],[0.75,1],[0.5,1],[0.25,1],[0,1],[0,0.75],[0,0.5],[0,0.25]];outlineConnect=0;gradientColor=none;html=1;whiteSpace=wrap;fontSize=12;fontStyle=0;container=1;pointerEvents=0;collapsible=0;recursiveResize=0;shape=mxgraph.aws4.groupCenter;grIcon=mxgraph.aws4.group_auto_scaling_group;grStroke=1;strokeColor=#D86613;fillColor=none;verticalAlign=top;align=center;fontColor=#D86613;dashed=1;spacingTop=25;movable=1;resizable=1;rotatable=1;deletable=1;editable=1;locked=0;connectable=1;" vertex="1" parent="bl2LzJDID7CKvUJ2VzMa-29">
          <mxGeometry x="700" y="180" width="240" height="210" as="geometry" />
        </mxCell>
        <mxCell id="bl2LzJDID7CKvUJ2VzMa-35" value="AZ가용영역 a2" style="sketch=0;outlineConnect=0;gradientColor=none;html=1;whiteSpace=wrap;fontSize=12;fontStyle=0;shape=mxgraph.aws4.group;grIcon=mxgraph.aws4.group_region;strokeColor=#879196;fillColor=none;verticalAlign=top;align=left;spacingLeft=30;fontColor=#879196;dashed=1;noLabel=0;" vertex="1" parent="bl2LzJDID7CKvUJ2VzMa-29">
          <mxGeometry x="640" y="452" width="450" height="290" as="geometry" />
        </mxCell>
        <mxCell id="bl2LzJDID7CKvUJ2VzMa-36" value="Private subnet" style="points=[[0,0],[0.25,0],[0.5,0],[0.75,0],[1,0],[1,0.25],[1,0.5],[1,0.75],[1,1],[0.75,1],[0.5,1],[0.25,1],[0,1],[0,0.75],[0,0.5],[0,0.25]];outlineConnect=0;html=1;whiteSpace=wrap;fontSize=12;fontStyle=0;container=1;pointerEvents=0;collapsible=0;recursiveResize=0;shape=mxgraph.aws4.group;grIcon=mxgraph.aws4.group_security_group;grStroke=0;strokeColor=#b85450;fillColor=#f8cecc;verticalAlign=top;align=left;spacingLeft=30;dashed=0;" vertex="1" parent="bl2LzJDID7CKvUJ2VzMa-29">
          <mxGeometry x="674" y="477" width="396" height="260" as="geometry" />
        </mxCell>
        <mxCell id="bl2LzJDID7CKvUJ2VzMa-37" value="Auto Scaling group" style="points=[[0,0],[0.25,0],[0.5,0],[0.75,0],[1,0],[1,0.25],[1,0.5],[1,0.75],[1,1],[0.75,1],[0.5,1],[0.25,1],[0,1],[0,0.75],[0,0.5],[0,0.25]];outlineConnect=0;gradientColor=none;html=1;whiteSpace=wrap;fontSize=12;fontStyle=0;container=1;pointerEvents=0;collapsible=0;recursiveResize=0;shape=mxgraph.aws4.groupCenter;grIcon=mxgraph.aws4.group_auto_scaling_group;grStroke=1;strokeColor=#D86613;fillColor=none;verticalAlign=top;align=center;fontColor=#D86613;dashed=1;spacingTop=25;movable=1;resizable=1;rotatable=1;deletable=1;editable=1;locked=0;connectable=1;" vertex="1" parent="bl2LzJDID7CKvUJ2VzMa-29">
          <mxGeometry x="700" y="513" width="240" height="210" as="geometry" />
        </mxCell>
        <mxCell id="bl2LzJDID7CKvUJ2VzMa-38" value="VPC" style="sketch=0;outlineConnect=0;gradientColor=none;html=1;whiteSpace=wrap;fontSize=12;fontStyle=0;shape=mxgraph.aws4.group;grIcon=mxgraph.aws4.group_vpc;strokeColor=#879196;fillColor=none;verticalAlign=top;align=left;spacingLeft=30;fontColor=#879196;dashed=1;movable=1;resizable=1;rotatable=1;deletable=1;editable=1;locked=0;connectable=1;" vertex="1" parent="bl2LzJDID7CKvUJ2VzMa-29">
          <mxGeometry x="340" y="80" width="770" height="700" as="geometry" />
        </mxCell>
        <mxCell id="bl2LzJDID7CKvUJ2VzMa-39" value="Public subnet" style="points=[[0,0],[0.25,0],[0.5,0],[0.75,0],[1,0],[1,0.25],[1,0.5],[1,0.75],[1,1],[0.75,1],[0.5,1],[0.25,1],[0,1],[0,0.75],[0,0.5],[0,0.25]];outlineConnect=0;gradientColor=none;html=1;whiteSpace=wrap;fontSize=12;fontStyle=0;container=1;pointerEvents=0;collapsible=0;recursiveResize=0;shape=mxgraph.aws4.group;grIcon=mxgraph.aws4.group_security_group;grStroke=0;strokeColor=#7AA116;fillColor=#F2F6E8;verticalAlign=top;align=left;spacingLeft=30;fontColor=#248814;dashed=0;" vertex="1" parent="bl2LzJDID7CKvUJ2VzMa-29">
          <mxGeometry x="432" y="365" width="130" height="130" as="geometry" />
        </mxCell>
        <mxCell id="bl2LzJDID7CKvUJ2VzMa-40" value="아이콘" style="locked=1;" parent="0" />
        <mxCell id="bl2LzJDID7CKvUJ2VzMa-41" value="Destop client" style="sketch=0;aspect=fixed;pointerEvents=1;shadow=0;dashed=0;html=1;strokeColor=none;labelPosition=center;verticalLabelPosition=bottom;verticalAlign=top;align=center;fillColor=#00188D;shape=mxgraph.mscae.enterprise.application" vertex="1" parent="bl2LzJDID7CKvUJ2VzMa-40">
          <mxGeometry x="79" y="396" width="50" height="34" as="geometry" />
        </mxCell>
        <mxCell id="bl2LzJDID7CKvUJ2VzMa-42" value="Login user token" style="outlineConnect=0;dashed=0;verticalLabelPosition=bottom;verticalAlign=top;align=center;html=1;shape=mxgraph.aws3.saml_token;fillColor=#D2D3D3;gradientColor=none;" vertex="1" parent="bl2LzJDID7CKvUJ2VzMa-40">
          <mxGeometry x="205" y="396" width="30" height="34.55" as="geometry" />
        </mxCell>
        <mxCell id="bl2LzJDID7CKvUJ2VzMa-43" value="Internet Gateway" style="sketch=0;outlineConnect=0;fontColor=#232F3E;gradientColor=none;fillColor=#8C4FFF;strokeColor=none;dashed=0;verticalLabelPosition=bottom;verticalAlign=top;align=center;html=1;fontSize=12;fontStyle=0;aspect=fixed;pointerEvents=1;shape=mxgraph.aws4.internet_gateway;" vertex="1" parent="bl2LzJDID7CKvUJ2VzMa-40">
          <mxGeometry x="321" y="392.95000000000005" width="37.05" height="37.05" as="geometry" />
        </mxCell>
        <mxCell id="bl2LzJDID7CKvUJ2VzMa-44" value="&lt;div&gt;&lt;br&gt;&lt;/div&gt;&lt;div&gt;&lt;br&gt;&lt;/div&gt;&lt;div&gt;&lt;br&gt;&lt;/div&gt;&lt;div&gt;&lt;br&gt;&lt;/div&gt;&lt;div&gt;&lt;br&gt;&lt;/div&gt;ALB" style="points=[];aspect=fixed;html=1;align=center;shadow=0;dashed=0;fillColor=#FF6A00;strokeColor=none;shape=mxgraph.alibaba_cloud.alb_application_load_balancer_01;" vertex="1" parent="bl2LzJDID7CKvUJ2VzMa-40">
          <mxGeometry x="468" y="396" width="60.4" height="51.23" as="geometry" />
        </mxCell>
        <mxCell id="bl2LzJDID7CKvUJ2VzMa-45" value="API server(EC2)" style="outlineConnect=0;dashed=0;verticalLabelPosition=bottom;verticalAlign=top;align=center;html=1;shape=mxgraph.aws3.ec2;fillColor=#F58534;gradientColor=none;fontSize=10;" vertex="1" parent="bl2LzJDID7CKvUJ2VzMa-40">
          <mxGeometry x="734" y="265" width="50" height="27.95" as="geometry" />
        </mxCell>
        <mxCell id="bl2LzJDID7CKvUJ2VzMa-46" value="Scaled Instances" style="outlineConnect=0;dashed=0;verticalLabelPosition=bottom;verticalAlign=top;align=center;html=1;shape=mxgraph.aws3.ec2;fillColor=#f5f5f5;fontColor=#333333;strokeColor=#666666;fontSize=10;" vertex="1" parent="bl2LzJDID7CKvUJ2VzMa-40">
          <mxGeometry x="850" y="265" width="50" height="27.95" as="geometry" />
        </mxCell>
        <mxCell id="bl2LzJDID7CKvUJ2VzMa-47" value="RDS Origin" style="outlineConnect=0;dashed=0;verticalLabelPosition=bottom;verticalAlign=top;align=center;html=1;shape=mxgraph.aws3.rds_db_instance;fillColor=#2E73B8;gradientColor=none;" vertex="1" parent="bl2LzJDID7CKvUJ2VzMa-40">
          <mxGeometry x="990" y="259.97" width="34" height="38" as="geometry" />
        </mxCell>
        <mxCell id="bl2LzJDID7CKvUJ2VzMa-48" value="API server(EC2)" style="outlineConnect=0;dashed=0;verticalLabelPosition=bottom;verticalAlign=top;align=center;html=1;shape=mxgraph.aws3.ec2;fillColor=#F58534;gradientColor=none;fontSize=10;" vertex="1" parent="bl2LzJDID7CKvUJ2VzMa-40">
          <mxGeometry x="734" y="604.03" width="50" height="27.95" as="geometry" />
        </mxCell>
        <mxCell id="bl2LzJDID7CKvUJ2VzMa-49" value="Scaled Instances" style="outlineConnect=0;dashed=0;verticalLabelPosition=bottom;verticalAlign=top;align=center;html=1;shape=mxgraph.aws3.ec2;fillColor=#f5f5f5;fontColor=#333333;strokeColor=#666666;fontSize=10;" vertex="1" parent="bl2LzJDID7CKvUJ2VzMa-40">
          <mxGeometry x="850" y="604.03" width="50" height="27.95" as="geometry" />
        </mxCell>
        <mxCell id="bl2LzJDID7CKvUJ2VzMa-50" value="RDS Origin" style="outlineConnect=0;dashed=0;verticalLabelPosition=bottom;verticalAlign=top;align=center;html=1;shape=mxgraph.aws3.rds_db_instance;fillColor=#2E73B8;gradientColor=none;" vertex="1" parent="bl2LzJDID7CKvUJ2VzMa-40">
          <mxGeometry x="990" y="599" width="34" height="38" as="geometry" />
        </mxCell>
        <mxCell id="bl2LzJDID7CKvUJ2VzMa-51" value="화살표" style="locked=1;" parent="0" />
        <mxCell id="bl2LzJDID7CKvUJ2VzMa-52" style="edgeStyle=orthogonalEdgeStyle;rounded=0;orthogonalLoop=1;jettySize=auto;html=1;" edge="1" parent="bl2LzJDID7CKvUJ2VzMa-51">
          <mxGeometry relative="1" as="geometry">
            <mxPoint x="190" y="413" as="targetPoint" />
            <mxPoint x="129" y="413" as="sourcePoint" />
          </mxGeometry>
        </mxCell>
        <mxCell id="bl2LzJDID7CKvUJ2VzMa-53" style="edgeStyle=orthogonalEdgeStyle;rounded=0;orthogonalLoop=1;jettySize=auto;html=1;" edge="1" parent="bl2LzJDID7CKvUJ2VzMa-51">
          <mxGeometry relative="1" as="geometry">
            <mxPoint x="300" y="413.2750000000001" as="targetPoint" />
            <mxPoint x="235" y="413.30769230769215" as="sourcePoint" />
          </mxGeometry>
        </mxCell>
        <mxCell id="bl2LzJDID7CKvUJ2VzMa-54" style="edgeStyle=orthogonalEdgeStyle;rounded=0;orthogonalLoop=1;jettySize=auto;html=1;" edge="1" parent="bl2LzJDID7CKvUJ2VzMa-51">
          <mxGeometry relative="1" as="geometry">
            <mxPoint x="420" y="411.47500000000014" as="targetPoint" />
            <mxPoint x="358.0499999999997" y="411.46153846153857" as="sourcePoint" />
          </mxGeometry>
        </mxCell>
        <mxCell id="bl2LzJDID7CKvUJ2VzMa-55" style="edgeStyle=orthogonalEdgeStyle;rounded=0;orthogonalLoop=1;jettySize=auto;html=1;" edge="1" parent="bl2LzJDID7CKvUJ2VzMa-51">
          <mxGeometry relative="1" as="geometry">
            <mxPoint x="700" y="279" as="targetPoint" />
            <Array as="points">
              <mxPoint x="590" y="422" />
              <mxPoint x="590" y="279" />
            </Array>
            <mxPoint x="528.4000000000001" y="421.6153846153845" as="sourcePoint" />
          </mxGeometry>
        </mxCell>
        <mxCell id="bl2LzJDID7CKvUJ2VzMa-56" style="edgeStyle=orthogonalEdgeStyle;rounded=0;orthogonalLoop=1;jettySize=auto;html=1;" edge="1" parent="bl2LzJDID7CKvUJ2VzMa-51">
          <mxGeometry relative="1" as="geometry">
            <mxPoint x="700" y="626" as="targetPoint" />
            <Array as="points">
              <mxPoint x="590" y="422" />
              <mxPoint x="590" y="626" />
            </Array>
            <mxPoint x="528.4000000000001" y="421.6153846153845" as="sourcePoint" />
          </mxGeometry>
        </mxCell>
        <mxCell id="bl2LzJDID7CKvUJ2VzMa-57" style="edgeStyle=orthogonalEdgeStyle;rounded=0;orthogonalLoop=1;jettySize=auto;html=1;entryX=0;entryY=0.5;entryDx=0;entryDy=0;entryPerimeter=0;" edge="1" parent="bl2LzJDID7CKvUJ2VzMa-51">
          <mxGeometry relative="1" as="geometry">
            <mxPoint x="940" y="279" as="sourcePoint" />
            <mxPoint x="990" y="278.97" as="targetPoint" />
          </mxGeometry>
        </mxCell>
        <mxCell id="bl2LzJDID7CKvUJ2VzMa-58" style="edgeStyle=orthogonalEdgeStyle;rounded=0;orthogonalLoop=1;jettySize=auto;html=1;entryX=0;entryY=0.5;entryDx=0;entryDy=0;entryPerimeter=0;" edge="1" parent="bl2LzJDID7CKvUJ2VzMa-51">
          <mxGeometry relative="1" as="geometry">
            <mxPoint x="940" y="618" as="sourcePoint" />
            <mxPoint x="990" y="618" as="targetPoint" />
          </mxGeometry>
        </mxCell>
      </root>
    </mxGraphModel>
  </diagram>
</mxfile>
